<?xml version="1.0" encoding="UTF-8" standalone="no"?>
<!DOCTYPE svg PUBLIC "-//W3C//DTD SVG 1.1//EN" "http://www.w3.org/Graphics/SVG/1.1/DTD/svg11.dtd">
<svg width="100%" height="100%" viewBox="0 0 6751 3081" version="1.1" xmlns="http://www.w3.org/2000/svg" xmlns:xlink="http://www.w3.org/1999/xlink" xml:space="preserve" xmlns:serif="http://www.serif.com/" style="fill-rule:evenodd;clip-rule:evenodd;stroke-linejoin:round;stroke-miterlimit:2;">
    <g transform="matrix(1,0,0,1,-624.999665,-2459.580764)">
        <g transform="matrix(4.166667,0,0,4.166667,0,0)">
            <g id="Capa-1" serif:id="Capa 1">
                <g transform="matrix(1,0,0,1,1534.4932,818.7448)">
                    <path d="M0,68.408C-1.844,66.501 -3.884,63.585 -4.413,57.636C-4.261,55.117 -3.878,53.05 -3.307,51.375C-3.255,51.331 -3.205,51.281 -3.153,51.238C-0.274,48.837 4.579,45.721 13.877,45.721C13.906,45.721 13.939,45.723 13.969,45.723C20.967,47.23 24.134,50.116 25.368,51.246C25.695,51.545 26.1,51.923 26.528,52.416C26.742,53.918 26.848,55.672 26.777,57.768L26.74,58.846L26.74,58.857C26.724,59.31 26.697,59.739 26.669,60.166C25.475,63.423 23.777,65.328 22.225,66.684C20.813,67.917 16.876,71.372 6.854,71.856C6.043,71.797 5.275,71.719 4.544,71.629C1.934,70.399 0.642,69.072 0,68.408M177.65,-94.471C177.648,-94.472 177.646,-94.472 177.646,-94.473C151.624,-118.304 120.256,-134.746 84.021,-143.733C63.318,-149.692 40.953,-153.129 16.967,-153.946C13.153,-154.076 9.374,-154.126 5.627,-154.105C-52.348,-155.092 -102.485,-138.37 -143.406,-104.261C-152.835,-96.402 -161.283,-87.906 -168.766,-78.803L-173.168,-118.233C-174.021,-125.877 -177.875,-132.868 -183.885,-137.67C-188.264,-141.171 -193.529,-143.277 -199.022,-143.843C-203.574,-145.848 -208.594,-146.681 -213.626,-146.174C-215.847,-146.446 -218.104,-146.494 -220.365,-146.243L-370.247,-129.511C-382.599,-128.132 -392.696,-119.038 -395.359,-106.899L-401.229,-80.119L-410.695,-100.828C-415.026,-110.3 -424.012,-116.551 -434.069,-117.599C-438.52,-119.568 -443.483,-120.43 -448.547,-119.945C-450.802,-120.234 -453.115,-120.26 -455.446,-120L-606.721,-103.113L-727.085,-117.807C-729.179,-118.065 -731.274,-118.068 -733.342,-117.872L-733.531,-117.895C-741.164,-118.832 -748.859,-116.688 -754.917,-111.947C-760.975,-107.207 -764.901,-100.253 -765.833,-92.618L-766.097,-90.449C-766.538,-89.08 -766.854,-87.668 -767.089,-86.234C-766.879,-88.314 -766.9,-90.363 -767.123,-92.363C-765.264,-108.207 -776.553,-122.592 -792.406,-124.527L-792.933,-124.591C-795.476,-125.711 -798.219,-126.492 -801.119,-126.846L-926.555,-142.158C-928.65,-142.415 -930.745,-142.419 -932.813,-142.223L-933,-142.246C-940.64,-143.183 -948.329,-141.039 -954.388,-136.298C-960.445,-131.558 -964.371,-124.605 -965.303,-116.97L-965.567,-114.8C-966.129,-113.059 -966.536,-111.26 -966.761,-109.418L-970.851,-75.877C-983.086,-99.489 -1000.059,-117.679 -1021.687,-130.141C-1033.566,-136.982 -1046.871,-142.116 -1061.525,-145.562C-1078.895,-150.654 -1098.32,-153.199 -1119.735,-153.131C-1129.035,-153.333 -1138.728,-153.021 -1148.793,-152.211C-1154.55,-181.523 -1166.642,-202.554 -1184.858,-214.758C-1192.281,-219.731 -1200.462,-223.073 -1209.207,-224.765C-1216.977,-227.387 -1225.29,-228.587 -1234,-228.331C-1242.346,-228.788 -1251.1,-227.88 -1260.13,-225.535C-1273.985,-221.937 -1287.114,-215.247 -1299.152,-205.652L-1341.672,-171.768C-1355.53,-160.723 -1366.229,-147.632 -1373.472,-132.857C-1378.319,-122.969 -1380.984,-113.826 -1382.204,-105.491C-1386.941,-86.063 -1383.546,-70.504 -1379.083,-59.954C-1378.695,-59.038 -1378.291,-58.137 -1377.872,-57.253C-1377.34,-55.704 -1376.784,-54.215 -1376.2,-52.835C-1365.138,-26.682 -1340.679,-13.379 -1328.738,-8.238C-1330.2,4.017 -1330.078,16.773 -1328.281,30.025C-1325.843,48.003 -1321.531,63.975 -1315.425,77.943C-1309.46,93.817 -1301.366,107.331 -1291.149,118.383L-1291.681,118.455C-1299.363,119.497 -1306.309,123.572 -1310.967,129.769C-1314.444,134.395 -1316.427,139.917 -1316.738,145.61C-1318.157,149.88 -1318.602,154.456 -1317.931,158.992C-1315.463,175.668 -1311.223,190.774 -1305.315,204.343C-1293.727,235.063 -1274.066,258.399 -1246.486,273.888C-1226.209,285.275 -1202.39,292.071 -1174.566,294.369C-1164.696,295.58 -1154.309,296.203 -1143.35,296.203C-1127.837,296.203 -1111.2,294.991 -1093.391,292.577C-1036.976,284.928 -993.955,264.257 -965.522,231.137C-963.191,228.422 -960.995,225.663 -958.894,222.874C-956.732,225.788 -954.469,228.637 -952.066,231.395C-922.292,265.587 -876.82,286.632 -816.914,293.945C-813.212,294.397 -809.561,294.761 -805.936,295.081C-793.966,296.476 -782.387,297.196 -771.243,297.196C-729.72,297.195 -694.016,287.524 -664.78,268.301C-648.737,257.754 -635.356,244.174 -624.612,227.723C-617.441,217.942 -611.304,207.028 -606.224,194.988L-599.462,255.565C-599.018,259.543 -597.745,263.333 -595.796,266.741C-594.231,272.771 -590.787,278.187 -585.862,282.122C-580.698,286.25 -574.307,288.468 -567.758,288.468C-567.239,288.468 -566.717,288.409 -566.195,288.381C-563.729,289.051 -561.176,289.409 -558.595,289.409C-557.525,289.409 -556.451,289.349 -555.377,289.23L-450.103,277.478C-442.458,276.624 -435.466,272.77 -430.665,266.761C-429.389,265.164 -428.309,263.444 -427.407,261.645C-426.961,261.158 -426.508,260.677 -426.094,260.158C-425.662,259.618 -425.276,259.05 -424.887,258.485C-419.114,266.082 -409.888,270.429 -400.187,269.88C-396.753,270.805 -393.118,271.117 -389.437,270.706L-349.292,266.224C-339.401,265.12 -330.939,259.055 -326.601,250.411C-325.109,248.789 -323.8,246.994 -322.703,245.053C-317.202,253.595 -307.41,258.911 -296.717,258.31C-293.304,259.233 -289.673,259.569 -285.948,259.153L-167.739,245.957C-160.094,245.104 -153.102,241.249 -148.301,235.24C-147.034,233.655 -145.97,231.943 -145.072,230.157C-144.615,229.661 -144.154,229.168 -143.73,228.637C-142.725,227.381 -141.841,226.049 -141.068,224.662C-109.53,250.31 -69.503,265.37 -21.62,269.559C-13.222,270.561 -4.602,271.257 4.298,271.56C8.072,271.687 11.802,271.752 15.502,271.752C75.853,271.752 126.01,254.647 164.708,220.839C177.709,209.482 188.812,196.791 198.002,182.81C221.161,150.755 233.659,111.464 235.224,65.474L235.353,61.672C235.493,57.55 235.532,53.485 235.484,49.468C236.276,-10.167 216.836,-58.573 177.65,-94.471" style="fill-rule:nonzero;"/>
                </g>
                <g transform="matrix(-0.998856,0.047815,0.047815,0.998856,355.286876,1328.053812)">
                    <rect x="-641.788" y="-239.684" width="647.522" height="224.332"/>
                </g>
                <g transform="matrix(-0.998856,0.047815,0.047815,0.998856,955.927576,1344.761212)">
                    <rect x="-641.788" y="-239.684" width="647.522" height="224.332"/>
                </g>
                <g transform="matrix(1,0,0,1,901.5533,1097.669)">
                    <path d="M0,154.275C-29.016,155.633 -40.937,141.627 -41.964,120.497L-47.314,2.363L-15.211,0.812L-9.779,119.043C-9.587,124.297 -7.803,127.789 -1.27,127.434C5.345,127.176 6.729,123.589 6.546,118.245L1.105,0.104L33.201,-1.358L38.641,116.784C39.578,137.907 29.008,153.006 0,154.275" style="fill:rgb(255,108,0);fill-rule:nonzero;"/>
                </g>
                <g transform="matrix(1,0,0,1,741.9507,1182.5442)">
                    <path d="M0,-0.442L3.543,76.806L-28.552,78.268L-32.118,1.288L-68.683,-74.215L-36.498,-75.669L-17.715,-36.882L-2.587,-77.249L29.508,-78.71L0,-0.442Z" style="fill:rgb(255,108,0);fill-rule:nonzero;"/>
                </g>
                <g transform="matrix(1,0,0,1,623.1817,1116.0348)">
                    <path d="M0,148.948L-71.807,152.225L-78.841,-1.816L-46.746,-3.277L-41.084,118.676L-1.551,116.845L0,148.948Z" style="fill:rgb(255,108,0);fill-rule:nonzero;"/>
                </g>
                <g transform="matrix(1,0,0,1,545.933,1119.5778)">
                    <path d="M0,148.948L-71.807,152.225L-78.841,-1.816L-46.746,-3.277L-41.083,118.676L-1.551,116.845L0,148.948Z" style="fill:rgb(255,108,0);fill-rule:nonzero;"/>
                </g>
                <g transform="matrix(1,0,0,1,814.2618,1129.1605)">
                    <path d="M0,99.924C-6.607,100.228 -8.307,96.777 -8.55,91.496L-12.333,9.184C-12.572,3.902 -11.197,0.31 -4.591,0.006C2.011,-0.297 3.711,3.154 3.954,8.436L7.738,90.747C7.981,96.03 6.602,99.621 0,99.924M36.048,6.94C35.111,-14.183 23.19,-28.189 -5.826,-26.83C-34.842,-25.472 -45.404,-10.462 -44.467,10.661L-40.718,92.984C-39.691,114.114 -27.86,128.113 1.246,126.763C30.261,125.404 40.824,110.394 39.887,89.271L36.048,6.94Z" style="fill:rgb(255,108,0);fill-rule:nonzero;"/>
                </g>
                <g transform="matrix(1,0,0,1,416.0852,1177.5951)">
                    <path d="M0,40.009L3.412,-0.949L10.568,39.524L0,40.009ZM25.706,-58.614L-24.067,-56.378L-36.803,98.623L-4.617,97.169L-2.268,67.019L15.319,66.237L20.414,95.928L52.599,94.474L25.706,-58.614Z" style="fill:rgb(255,108,0);fill-rule:nonzero;"/>
                </g>
                <g transform="matrix(1,0,0,1,1531.7791,1236.93)">
                    <path d="M0,-90.354L5.792,31.823L-26.453,33.31L-32.155,-88.859L-54.229,-87.794L-57.896,-119.947L22.758,-123.664L22.075,-91.419L0,-90.354Z" style="fill:rgb(255,108,0);fill-rule:nonzero;"/>
                </g>
                <g transform="matrix(1,0,0,1,1397.1448,1124.3149)">
                    <path d="M0,150.978L-71.938,154.331L-79.136,0.007L-7.286,-3.353L-5.791,28.801L-45.486,30.666L-43.946,62.281L-12.241,60.748L-10.943,87.639L-42.737,89.164L-41.28,120.681L-1.585,118.816L0,150.978Z" style="fill:rgb(255,108,0);fill-rule:nonzero;"/>
                </g>
                <g transform="matrix(1,0,0,1,1229.103,1129.6524)">
                    <path d="M0,153.509L-20.206,70.943L-16.354,154.324L-48.509,155.819L-55.795,1.489L-23.551,0.001L-3.345,82.566L-7.286,-0.822L24.958,-2.31L32.154,152.013L0,153.509Z" style="fill:rgb(255,108,0);fill-rule:nonzero;"/>
                </g>
                <g transform="matrix(1,0,0,1,1044.093,1137.7463)">
                    <path d="M0,153.867C-29.069,155.256 -41.026,141.235 -41.985,120.073L-45.911,37.592C-46.871,16.43 -36.303,1.382 -7.234,-0.007C21.925,-1.389 33.792,12.625 34.841,33.793L35.74,54.588L3.503,53.814L2.59,35.371C2.4,30.017 0.691,26.618 -5.936,26.883C-12.57,27.237 -13.954,30.832 -13.668,36.104L-9.831,118.579C-9.545,123.85 -7.843,127.339 -1.299,126.977C5.329,126.712 6.713,123.117 6.523,117.763L5.527,97.051L37.771,97.735L38.677,116.268C39.636,137.43 29.062,152.567 0,153.867" style="fill:rgb(255,108,0);fill-rule:nonzero;"/>
                </g>
                <g transform="matrix(1,0,0,1,1122.3103,1191.0569)">
                    <path d="M0,40.073L3.378,-0.966L10.587,39.577L0,40.073ZM25.658,-58.76L-24.206,-56.472L-36.815,98.833L-4.571,97.345L-2.246,67.136L15.373,66.336L20.507,96.077L52.751,94.589L25.658,-58.76Z" style="fill:rgb(255,108,0);fill-rule:nonzero;"/>
                </g>
                <g transform="matrix(1,0,0,1,1439.4111,1176.1882)">
                    <path d="M0,40.073L3.378,-0.966L10.587,39.577L0,40.073ZM25.658,-58.76L-24.206,-56.472L-36.815,98.833L-4.571,97.345L-2.246,67.136L15.373,66.336L20.507,96.077L52.751,94.589L25.658,-58.76Z" style="fill:rgb(255,108,0);fill-rule:nonzero;"/>
                </g>
                <g transform="matrix(1,0,0,1,433.0637,705.5147)">
                    <path d="M0,361.544C-107.812,376.161 -167.776,342.482 -179.909,260.511L-54.246,243.474C-50.155,263.657 -36.259,272.137 -12.557,268.923C5.795,266.435 14.12,258.854 12.4,246.166C11.541,239.829 7.794,235.406 1.169,232.901C-5.462,230.407 -16.229,229.317 -31.14,229.635C-85.314,231.204 -124.075,224.82 -147.434,210.477C-170.791,196.141 -185.051,169.945 -190.209,131.894C-195.005,96.521 -185.476,65.911 -161.615,40.067C-137.76,14.234 -102.467,-1.856 -55.736,-8.191C-8.344,-14.617 29.089,-9.916 56.558,5.902C84.023,21.727 102.022,49.791 110.547,90.1L-12.614,106.798C-14.372,98.877 -17.899,92.904 -23.203,88.859C-28.514,84.823 -35.34,83.366 -43.678,84.497C-59.699,86.669 -66.94,93.433 -65.402,104.777C-64.542,111.121 -60.968,115.568 -54.673,118.107C-48.384,120.658 -37.631,121.582 -22.431,120.875C27.267,118.901 65.131,124.299 91.17,137.085C117.199,149.87 132.848,175.622 138.097,214.337C142.984,250.385 133.539,282.257 109.762,309.952C85.984,337.649 49.393,354.848 0,361.544" style="fill:white;fill-rule:nonzero;"/>
                </g>
                <g transform="matrix(1,0,0,1,726.1138,711.5517)">
                    <path d="M0,357.767C-52.815,351.319 -91.751,333.718 -116.795,304.959C-141.848,276.207 -151.34,236.981 -145.279,187.275L-121.69,-6.179L3.747,9.135L-19.382,198.814C-21.799,218.63 -21.114,233.244 -17.31,242.643C-13.515,252.046 -3.758,257.705 11.967,259.624C27.056,261.466 37.323,258.335 42.785,250.219C48.239,242.108 52.158,228.303 54.537,208.794L77.78,18.173L204.159,33.601L180.512,227.527C174.26,278.803 155.265,314.874 123.527,335.736C91.789,356.604 50.612,363.946 0,357.767" style="fill:white;fill-rule:nonzero;"/>
                </g>
                <g transform="matrix(1,0,0,1,971.7576,701.412)">
                    <path d="M0,362.216L-35.604,43.272L116.953,26.242L173.125,149.14L202.152,16.731L352.034,0L387.637,318.944L269.428,332.14L250.506,162.63L206.086,339.211L165.939,343.692L86.351,180.955L105.273,350.464L0,362.216Z" style="fill:white;fill-rule:nonzero;"/>
                </g>
                <g transform="matrix(1,0,0,1,1598.1194,868.6277)">
                    <path d="M0,2.496C-0.523,17.861 -5.815,29.94 -15.875,38.728C-25.936,47.518 -39.187,51.632 -55.631,51.072C-71.717,50.525 -84.235,45.625 -93.185,36.367C-102.137,27.111 -106.355,14.935 -105.841,-0.162L-105.805,-1.24C-105.3,-16.066 -99.864,-27.801 -89.492,-36.445C-79.124,-45.087 -66.436,-49.155 -51.428,-48.644C-35.883,-48.115 -23.29,-43.436 -13.649,-34.606C-4.01,-25.777 0.553,-13.767 0.037,1.418L0,2.496ZM85.721,-125.288C51.686,-156.457 7.231,-172.977 -47.645,-174.844C-100.626,-176.647 -145.417,-162.288 -182.018,-131.779C-218.629,-101.266 -237.821,-59.84 -239.602,-7.501L-239.731,-3.694C-241.545,49.598 -226.655,92.583 -195.053,125.257C-163.459,157.937 -119.269,175.235 -62.484,177.168C-4.432,179.143 42.344,164.621 77.862,133.591C113.372,102.57 132.056,59.93 133.902,5.687L134.031,1.881C135.856,-51.724 119.746,-94.119 85.721,-125.288" style="fill:white;fill-rule:nonzero;"/>
                </g>
                <g transform="matrix(1,0,0,1,226.2197,615.6785)">
                    <path d="M0,155.158C0,155.158 -58.69,136.056 -32.712,83.06C-27.177,71.769 -18.806,61.977 -8.878,54.065L33.641,20.181C42.017,13.506 51.586,8.362 61.879,5.689C83.777,0 115.585,2.962 123.806,62.993C123.806,62.993 54.213,69.657 0,155.158" style="fill:white;fill-rule:nonzero;"/>
                </g>
            </g>
        </g>
    </g>
</svg>
