<?xml version="1.0" encoding="UTF-8" standalone="no"?>
<!DOCTYPE svg PUBLIC "-//W3C//DTD SVG 1.1//EN" "http://www.w3.org/Graphics/SVG/1.1/DTD/svg11.dtd">
<svg width="100%" height="100%" viewBox="0 0 2260 2663" version="1.1" xmlns="http://www.w3.org/2000/svg" xmlns:xlink="http://www.w3.org/1999/xlink" xml:space="preserve" xmlns:serif="http://www.serif.com/" style="fill-rule:evenodd;clip-rule:evenodd;stroke-linejoin:round;stroke-miterlimit:2;">
    <g transform="matrix(1,0,0,1,-145.402917,-318.801037)">
        <g transform="matrix(4.166667,0,0,4.166667,0,0)">
            <g id="Capa-1" serif:id="Capa 1">
                <g transform="matrix(1,0,0,1,540.7867,385.9635)">
                    <path d="M0,17.782L-0.004,17.778C-10.955,7.39 -23.404,-0.914 -37.266,-7.116C-32.646,-10.472 -28.303,-14.126 -24.254,-18.089C-0.082,-41.735 10.632,-75.179 7.591,-117.492L-3.576,-272.873L-275.009,-253.364L-274.812,-250.626C-292.952,-260.199 -315.272,-264.459 -341.386,-263.342C-346.053,-279.431 -354.235,-291.623 -365.836,-299.693C-379.148,-308.954 -396.066,-311.743 -413.478,-307.546C-423.797,-305.058 -433.554,-300.317 -442.478,-293.458L-468.156,-273.722C-478.278,-265.944 -486.186,-256.58 -491.661,-245.89C-502.909,-223.928 -499.889,-205.948 -495.375,-194.732C-489.051,-179.02 -477.038,-169.258 -467.575,-163.67C-467.976,-157.395 -467.799,-150.964 -467.026,-144.405C-465.04,-127.528 -460.549,-113.031 -453.605,-101.008L-466.379,-99.504L-462.19,-67.302C-460.624,-55.265 -457.709,-44.891 -453.928,-35.95L-469.781,-36.769L-482.817,215.699L-505.89,215.809L-505.434,312.252L-236.174,310.977L-236.083,329.525L29.858,328.263L29.407,231.781L-40.684,232.12C-28.954,227.15 -18.188,220.556 -8.441,212.339C18.977,189.222 33.923,157.306 35.98,117.468L36.091,115.319C38.158,75.284 26.015,42.468 0,17.782" style="fill-rule:nonzero;"/>
                </g>
                <g transform="matrix(1,0,0,1,214.7796,154.5764)">
                    <path d="M0,220.665C-65.588,228.386 -101.623,207.307 -108.112,157.428L-31.664,148.428C-29.396,160.721 -21.053,166.016 -6.633,164.318C4.531,163.004 9.665,158.491 8.756,150.773C8.302,146.918 6.075,144.193 2.081,142.602C-1.917,141.018 -8.44,140.242 -17.493,140.275C-50.388,140.65 -73.845,136.362 -87.869,127.408C-101.892,118.458 -110.267,102.408 -112.992,79.259C-115.525,57.739 -109.416,39.264 -94.659,23.833C-79.905,8.409 -58.314,-0.98 -29.884,-4.327C-1.053,-7.721 21.616,-4.469 38.118,5.424C54.618,15.321 65.243,32.545 69.987,57.101L-4.939,65.921C-5.922,61.095 -7.999,57.433 -11.174,54.921C-14.355,52.415 -18.482,51.458 -23.555,52.055C-33.301,53.203 -37.768,57.231 -36.956,64.132C-36.501,67.991 -34.38,70.729 -30.586,72.337C-26.796,73.952 -20.28,74.627 -11.048,74.36C19.136,73.692 42.059,77.372 57.726,85.41C73.387,93.447 82.61,109.243 85.383,132.795C87.965,154.726 81.892,173.969 67.167,190.523C52.44,207.079 30.048,217.128 0,220.665" style="fill:white;fill-rule:nonzero;"/>
                </g>
                <g transform="matrix(1,0,0,1,422.1018,144.1619)">
                    <path d="M0,228.096C-34.26,230.558 -61.108,224.239 -80.536,209.132C-99.97,194.032 -110.842,170.37 -113.158,138.146L-122.172,12.73L-40.804,6.882L-31.966,129.851C-31.043,142.698 -28.799,151.866 -25.225,157.346C-21.656,162.83 -14.773,165.203 -4.573,164.47C5.215,163.767 11.332,160.511 13.787,154.696C16.238,148.884 17.011,139.657 16.102,127.01L7.22,3.43L89.199,-2.462L98.235,123.26C100.624,156.502 93.057,181.696 75.533,198.838C58.009,215.985 32.831,225.736 0,228.096" style="fill:white;fill-rule:nonzero;"/>
                </g>
                <g transform="matrix(1,0,0,1,87.3301,393.9949)">
                    <path d="M0,184.181L10.146,-12.332L104.142,-7.478L125.918,72.461L156.636,-4.768L248.983,-0L238.837,196.513L166.004,192.752L171.396,88.312L126.976,190.737L102.241,189.46L70.255,83.089L64.863,187.53L0,184.181Z" style="fill:white;fill-rule:nonzero;"/>
                </g>
                <g transform="matrix(1,0,0,1,471.8657,497.1049)">
                    <path d="M0,2.509C-0.458,11.384 -3.64,18.312 -9.543,23.288C-15.447,28.266 -23.147,30.51 -32.646,30.019C-41.938,29.539 -49.123,26.58 -54.201,21.139C-59.281,15.699 -61.595,8.618 -61.145,-0.102L-61.113,-0.725C-60.671,-9.289 -57.41,-16.016 -51.328,-20.906C-45.248,-25.796 -37.873,-28.018 -29.204,-27.57C-20.225,-27.107 -12.994,-24.274 -7.512,-19.073C-2.031,-13.872 0.485,-6.885 0.032,1.886L0,2.509ZM50.841,-70.475C31.486,-88.835 5.961,-98.834 -25.736,-100.47C-56.339,-102.05 -82.372,-94.206 -103.836,-76.945C-125.305,-59.681 -136.818,-35.934 -138.379,-5.702L-138.492,-3.503C-140.082,27.279 -131.912,52.274 -113.98,71.479C-96.052,90.688 -70.687,101.134 -37.887,102.828C-4.356,104.559 22.827,96.641 43.67,79.067C64.509,61.499 75.74,37.045 77.357,5.713L77.471,3.515C79.07,-27.448 70.189,-52.115 50.841,-70.475" style="fill:white;fill-rule:nonzero;"/>
                </g>
                <g transform="matrix(1,0,0,1,92.4017,99.9805)">
                    <path d="M0,93.274C0,93.274 -35.416,81.055 -19.085,49.168C-15.605,42.374 -10.42,36.52 -4.31,31.825L21.857,11.713C27.011,7.751 32.873,4.732 39.149,3.219C52.5,0 71.773,2.136 76.122,38.658C76.122,38.658 33.814,41.96 0,93.274" style="fill:white;fill-rule:nonzero;"/>
                </g>
                <g transform="matrix(1,0,0,1,87.497,616.831)">
                    <path d="M0,66.079L-13.86,66.134L-15.524,53.281L-23.098,53.306L-24.641,66.224L-38.502,66.279L-30.282,-0.12L-8.848,-0.2L0,66.079Z" style="fill:rgb(255,108,0);fill-rule:nonzero;"/>
                </g>
                <g transform="matrix(1,0,0,1,236.8585,615.9635)">
                    <path d="M0,66.149C-12.535,66.214 -17.372,59.987 -17.439,50.887L-17.593,15.435C-17.621,6.339 -12.815,0.075 -0.319,0.005C12.177,-0.065 17.053,6.166 17.081,15.262L17.273,50.718C17.302,59.814 12.496,66.079 0,66.149" style="fill:rgb(255,108,0);fill-rule:nonzero;"/>
                </g>
                <g transform="matrix(1,0,0,1,390.392,635.082)">
                    <path d="M0,66.151L-13.821,66.211L-15.481,53.32L-23.098,53.378L-24.637,66.258L-38.458,66.317L-30.243,-0.043L-8.843,-0.166L0,66.151Z" style="fill:rgb(255,108,0);fill-rule:nonzero;"/>
                </g>
                <g transform="matrix(1,0,0,1,545.9485,686.6838)">
                    <path d="M0,-38.697L0.274,13.823L-13.586,13.878L-13.822,-38.637L-23.311,-38.58L-24.302,-52.44L10.366,-52.575L9.49,-38.754L0,-38.697Z" style="fill:rgb(255,108,0);fill-rule:nonzero;"/>
                </g>
                <g transform="matrix(1,0,0,1,526.7004,634.4369)">
                    <path d="M0,66.155L-13.86,66.21L-15.519,53.319L-23.098,53.382L-24.637,66.262L-38.497,66.317L-30.282,-0.044L-8.844,-0.162L0,66.155Z" style="fill:rgb(255,108,0);fill-rule:nonzero;"/>
                </g>
                <g transform="matrix(1,0,0,1,485.8602,634.5675)">
                    <path d="M0,66.204L-30.923,66.341L-31.218,0.004L-0.333,-0.137L-0.274,13.684L-17.337,13.766L-17.248,27.357L-3.619,27.273L-3.548,38.833L-17.216,38.912L-17.161,52.459L-0.098,52.378L0,66.204Z" style="fill:rgb(255,108,0);fill-rule:nonzero;"/>
                </g>
                <g transform="matrix(1,0,0,1,413.6263,634.8246)">
                    <path d="M0,66.282L-7.174,30.495L-7.031,66.336L-20.852,66.396L-21.186,0.054L-7.326,-0.001L-0.152,35.786L-0.333,-0.059L13.526,-0.114L13.821,66.222L0,66.282Z" style="fill:rgb(255,108,0);fill-rule:nonzero;"/>
                </g>
                <g transform="matrix(1,0,0,1,334.1024,635.245)">
                    <path d="M0,66.14C-12.496,66.21 -17.372,59.978 -17.401,50.883L-17.593,15.426C-17.621,6.33 -12.815,0.066 -0.319,-0.004C12.215,-0.07 17.053,6.157 17.12,15.258L17.129,24.195L3.313,23.28L3.255,15.351C3.271,13.051 2.599,11.561 -0.249,11.555C-3.101,11.587 -3.76,13.104 -3.733,15.371L-3.579,50.823C-3.552,53.09 -2.885,54.617 -0.071,54.58C2.777,54.587 3.436,53.07 3.452,50.769L3.399,41.865L17.22,42.742L17.273,50.709C17.302,59.805 12.491,66.108 0,66.14" style="fill:rgb(255,108,0);fill-rule:nonzero;"/>
                </g>
                <g transform="matrix(1,0,0,1,273.9143,615.6883)">
                    <path d="M0,66.238C-12.496,66.308 -17.372,60.076 -17.439,50.976L-17.647,0.103L-3.82,0.005L-3.579,50.921C-3.59,53.183 -2.885,54.715 -0.071,54.678C2.777,54.685 3.436,53.167 3.452,50.867L3.206,-0.01L17.027,-0.07L17.273,50.807C17.302,59.903 12.491,66.206 0,66.238" style="fill:rgb(255,108,0);fill-rule:nonzero;"/>
                </g>
                <g transform="matrix(1,0,0,1,206.549,649.2852)">
                    <path d="M0,-0.206L0.155,33.061L-13.667,33.12L-13.836,-0.031L-28.216,-33.133L-14.356,-33.187L-6.969,-16.183L0.249,-33.266L14.07,-33.326L0,-0.206Z" style="fill:rgb(255,108,0);fill-rule:nonzero;"/>
                </g>
                <g transform="matrix(1,0,0,1,154.0302,616.4783)">
                    <path d="M0,66.122L-30.923,66.259L-31.218,-0.077L-17.397,-0.137L-17.123,52.383L-0.098,52.296L0,66.122Z" style="fill:rgb(255,108,0);fill-rule:nonzero;"/>
                </g>
                <g transform="matrix(1,0,0,1,120.7635,616.633)">
                    <path d="M0,66.122L-30.923,66.259L-31.218,-0.077L-17.397,-0.137L-17.123,52.383L-0.098,52.296L0,66.122Z" style="fill:rgb(255,108,0);fill-rule:nonzero;"/>
                </g>
                <g transform="matrix(1,0,0,1,240.1186,666.7798)">
                    <path d="M0,-35.48C-0.011,-37.755 -0.681,-39.268 -3.524,-39.255C-6.369,-39.241 -7.023,-37.721 -7.014,-35.447L-6.846,-0C-6.835,2.275 -6.165,3.788 -3.32,3.775C-0.477,3.762 0.179,2.242 0.168,-0.033L0,-35.48Z" style="fill-rule:nonzero;"/>
                </g>
                <g transform="matrix(1,0,0,1,368.771,659.3323)">
                    <path d="M0,17.545L4.549,17.524L2.192,0L0,17.545Z" style="fill-rule:nonzero;"/>
                </g>
                <g transform="matrix(1,0,0,1,65.8526,641.0225)">
                    <path d="M0,17.545L4.551,17.524L2.192,0L0,17.545Z" style="fill-rule:nonzero;"/>
                </g>
                <g transform="matrix(1,0,0,1,505.0616,658.6882)">
                    <path d="M0,17.545L4.549,17.524L2.192,0L0,17.545Z" style="fill-rule:nonzero;"/>
                </g>
            </g>
        </g>
    </g>
</svg>
